<svg xmlns="http://www.w3.org/2000/svg" viewBox="0 0 24 24" id="puma"><path fill="#37474F" d="M2.27 3.081c-.154.023-.302.585-.6.878-.219.211-.49.199-.635.46-.055.097-.037.264-.1.424-.122.32-.55.348-.55.697-.001.377.357.448.668.716.243.214.266.363.56.467.251.084.624-.192.959-.092.276.081.54.139.602.42.055.258-.004.659-.338.613-.113-.013-.602-.175-1.201-.113C.91 7.633.084 7.867.003 8.667c-.045.447.514.974 1.053.867.373-.073.197-.508.399-.72.266-.271 1.774.945 3.175.945.59 0 1.029-.148 1.465-.6.041-.035.09-.108.154-.113a.566.566 0 0 1 .197.087c1.129.898 1.982 2.7 6.131 2.721.584.004 1.248.279 1.791.769.484.443.767 1.133 1.042 1.832.416 1.049 1.159 2.07 2.287 3.206.062.061.991.776 1.065.829.012.008.08.169.056.259-.028.681-.128 2.662 1.364 2.751.364.019.269-.236.269-.41-.001-.345-.064-.688.119-1.041.251-.486-.532-.709-.51-1.76.017-.783-.648-.65-.985-1.246-.194-.346-.367-.529-.354-.952.076-2.379-.511-3.942-.804-4.326-.229-.29-.418-.405-.208-.539 1.244-.814 1.527-1.571 1.527-1.571.662-1.54 1.257-2.947 2.078-3.567.165-.128.589-.442.849-.564.767-.358 1.17-.574 1.392-.789.351-.339.63-1.048.293-1.477-.42-.53-1.146-.109-1.466.079-2.288 1.344-2.625 3.716-3.418 5.078-.633 1.089-1.661 1.888-2.58 1.953-.689.051-1.432-.087-2.171-.409-1.799-.781-2.783-1.789-3.016-1.967-.483-.369-4.236-4.016-7.275-4.165 0 0-.378-.748-.472-.76-.222-.028-.45.446-.613.502-.154.052-.412-.513-.567-.488z"></path></svg>